<svg width="224" height="50" viewBox="0 0 224 50" fill="none" xmlns="http://www.w3.org/2000/svg">
<path d="M29.0511 0.265828C28.3903 0.212891 27.7294 0.212891 27.0157 0.212891C25.5618 0.212891 24.2137 0.398173 22.9449 0.742268C21.6231 1.1393 20.3807 1.72162 19.2705 2.51568C17.05 4.07734 15.1203 5.9831 13.3493 8.23295L0 0.848143V49.2597H13.3493V19.1116C14.4066 17.947 15.5433 16.9412 16.7064 16.1736C17.9224 15.4589 19.1648 14.8766 20.5922 14.5061C22.0197 14.0826 23.5793 13.8708 25.3239 13.8708C26.2227 13.8708 27.1743 13.9238 28.1524 14.0296C29.1569 14.1355 30.1085 14.2149 30.9808 14.3473V0.609923C30.3993 0.45111 29.7649 0.345235 29.0511 0.265828Z" fill="#21383E"/>
<path d="M223.077 17.3371V49.2585H209.755V19.0311C209.755 17.4694 209.464 16.1989 208.882 15.1402C208.301 14.1344 207.534 13.3403 206.503 12.8109C205.446 12.2815 204.23 11.9904 202.802 11.9904C201.56 11.9904 200.344 12.1492 199.154 12.4668C197.991 12.758 196.881 13.1815 195.824 13.7373C194.766 14.2667 192.916 14.8755 191.964 15.6166L191.991 49.2585H178.642V0.820534L190.273 7.27893C190.907 6.69662 191.541 6.1143 191.964 5.77021C192.652 5.21436 195.877 3.44095 199.128 2.01163C199.155 2.01163 199.207 1.98516 199.26 1.95869C199.472 1.82635 199.683 1.74694 199.948 1.64107C199.974 1.6146 200 1.6146 200.027 1.6146C200.582 1.37638 201.111 1.16463 201.639 1.00582C201.666 1.00582 201.719 0.979347 201.745 0.979347C202.379 0.794065 202.987 0.608783 203.622 0.476439C203.728 0.44997 203.807 0.44997 203.913 0.397033C205.234 0.158813 206.583 0 207.984 0C208.01 0 208.01 0 208.036 0C208.459 0 208.856 0 209.279 0.0264688C209.675 0.0529377 210.098 0.105875 210.468 0.132344C210.891 0.158813 211.261 0.211751 211.631 0.291157C214.116 0.68819 216.152 1.53519 217.711 2.75276C218.61 3.44095 219.324 4.23502 219.958 5.08202C220.143 5.32024 220.328 5.6114 220.487 5.90255C220.989 6.72309 221.439 7.62303 221.756 8.60238C221.967 9.2641 222.152 9.95229 222.311 10.6405C222.417 11.0375 222.496 11.461 222.575 11.858C222.654 12.3345 222.734 12.7845 222.787 13.2344C222.892 13.7903 222.945 14.3991 222.972 14.9814C223.025 15.4049 223.051 15.8284 223.051 16.2783C223.077 16.6224 223.077 16.9665 223.077 17.3371Z" fill="#21383E"/>
<path d="M61.1956 39.7558C57.9706 39.7558 55.4858 39.4382 53.794 38.8029C52.1022 38.1677 50.8863 37.1354 50.2518 35.6796C49.6174 34.1973 49.2738 32.2387 49.1416 29.7506H61.3013C64.447 29.7506 67.2226 29.3271 69.5488 28.5595C71.9014 27.7654 73.6989 26.4155 74.9942 24.5098C76.2895 22.5775 76.9239 20.0365 76.9239 16.7808C76.9239 12.387 76.2895 8.97253 74.9942 6.59034C73.6989 4.18167 71.6106 2.51413 68.7557 1.56126C67.7777 1.24363 66.6939 0.952472 65.5043 0.740721C63.1517 0.31722 60.4025 0.105469 57.204 0.105469C54.3227 0.105469 51.7321 0.31722 49.4852 0.740721C47.582 1.08482 45.9166 1.61419 44.4892 2.24945C41.37 3.70523 39.1495 6.21977 37.8013 9.81954C36.5061 13.4458 35.8452 18.5013 35.8452 25.0656C35.8452 31.4446 36.5325 36.4207 37.9599 40.0205C39.3345 43.6203 41.8986 46.426 45.0972 47.8553C46.3924 48.4376 47.8728 48.8876 49.5381 49.2317C51.9172 49.7346 54.6928 49.9728 57.8649 49.9728C61.7243 49.9728 65.0285 49.7081 67.8305 49.3111C67.9892 49.2846 68.1478 49.2581 68.3064 49.2317C70.9233 48.7817 73.1174 48.3847 75.5758 47.9347V39.7558H61.1956V39.7558ZM49.8025 14.4516C50.3311 12.7046 51.2299 11.4871 52.4194 10.7989C53.609 10.1107 55.2215 9.7666 57.2833 9.7666C59.213 9.7666 60.7198 9.97835 61.8564 10.4548C62.9931 10.9048 63.839 11.6459 64.3677 12.7046C64.9228 13.7899 65.1871 15.1662 65.1871 16.9132C65.1871 18.766 64.7906 20.063 63.9183 20.8041C63.0988 21.5188 61.7771 21.8893 59.9796 21.8893H48.983C48.983 18.6337 49.2209 16.1721 49.8025 14.4516Z" fill="#21383E"/>
<path d="M169.944 12.837C169.125 9.60778 167.83 7.06677 166.059 5.21396C164.287 3.36114 161.988 2.06416 159.186 1.24363C158.472 1.05835 157.705 0.873065 156.912 0.740721C154.56 0.31722 151.89 0.105469 148.903 0.105469C145.995 0.105469 143.352 0.31722 141.025 0.740721C140.232 0.873065 139.466 1.05835 138.752 1.24363C135.924 1.98476 133.624 3.28173 131.853 5.16102C130.082 6.9609 128.76 9.50191 127.967 12.7576C127.147 15.9868 126.777 20.0894 126.777 25.0391C126.777 29.777 127.147 33.6944 127.967 36.9501C128.76 40.1264 130.082 42.7203 131.853 44.6261C133.624 46.5583 135.924 47.9611 138.726 48.7552C139.36 48.9405 140.021 49.0993 140.735 49.2581C143.114 49.761 145.836 49.9992 148.903 49.9992C152.101 49.9992 154.93 49.7346 157.362 49.2581C158.049 49.1258 158.683 48.967 159.318 48.7817C162.199 48.0141 164.446 46.6906 166.191 44.8113C167.935 42.9321 169.178 40.3911 169.997 37.1619C170.764 33.8797 171.16 29.8829 171.16 25.0391C171.187 20.1424 170.737 16.0662 169.944 12.837ZM157.309 33.218C156.939 35.309 156.384 36.8442 155.723 37.85C155.009 38.8294 154.11 39.5176 153 39.8352C151.863 40.1793 150.515 40.3381 148.903 40.3381C147.317 40.3381 145.995 40.1793 144.885 39.8352C143.748 39.5176 142.876 38.8559 142.136 37.85C141.422 36.8178 140.867 35.2826 140.55 33.218C140.259 31.1799 140.1 28.4007 140.1 25.0127C140.1 21.5717 140.259 18.8454 140.602 16.7808C140.92 14.7427 141.448 13.2075 142.188 12.2017C142.902 11.1694 143.801 10.5077 144.938 10.1901C146.048 9.846 147.37 9.71366 148.956 9.71366C150.568 9.71366 151.916 9.846 153.053 10.1901C154.163 10.5077 155.035 11.1694 155.776 12.2017C156.436 13.1811 156.965 14.7163 157.362 16.7808C157.705 18.8189 157.89 21.5717 157.89 25.0127C157.864 28.4007 157.652 31.1799 157.309 33.218Z" fill="#21383E"/>
<path d="M121.888 0.847656H81.8931V11.5675H105.605L81.8931 39.5981V49.2592H121.888V38.4864H98.2294L121.888 10.3235V0.847656Z" fill="#21383E"/>
</svg>
