<svg width="85" height="19" viewBox="0 0 85 19" fill="none" xmlns="http://www.w3.org/2000/svg">
<path d="M11.0027 0.177667C10.7536 0.157715 10.5045 0.157715 10.2355 0.157715C9.68755 0.157715 9.17943 0.227548 8.7012 0.357238C8.20304 0.506881 7.73478 0.726357 7.31633 1.02564C6.47943 1.61424 5.75212 2.33252 5.08459 3.1805L0.0532227 0.397143V18.6436H5.08459V7.28071C5.48312 6.84175 5.91153 6.46266 6.34991 6.17335C6.80821 5.90399 7.27647 5.68452 7.81448 5.54485C8.35249 5.38523 8.94031 5.30542 9.59788 5.30542C9.93662 5.30542 10.2953 5.32538 10.6639 5.36528C11.0425 5.40518 11.4012 5.43511 11.73 5.48499V0.307358C11.5108 0.2475 11.2717 0.207596 11.0027 0.177667Z" fill="#21383E"/>
<path d="M84.1318 6.61203V18.6433H79.1104V7.25051C79.1104 6.66191 79.0008 6.18306 78.7816 5.78401C78.5624 5.40492 78.2735 5.10563 77.8849 4.90611C77.4864 4.70658 77.0281 4.59685 76.4901 4.59685C76.0218 4.59685 75.5635 4.6567 75.1152 4.77642C74.6768 4.88615 74.2583 5.04577 73.8598 5.25527C73.4613 5.4548 72.7639 5.68425 72.4052 5.96358L72.4152 18.6433H67.3838V0.386898L71.7676 2.82109C72.0067 2.60161 72.2458 2.38213 72.4052 2.25244C72.6642 2.04294 73.8797 1.37454 75.1052 0.835826C75.1152 0.835826 75.1351 0.82585 75.155 0.815874C75.2347 0.765993 75.3144 0.736064 75.4141 0.69616C75.424 0.686184 75.434 0.686184 75.4439 0.686184C75.6532 0.596398 75.8524 0.516589 76.0517 0.456731C76.0617 0.456731 76.0816 0.446755 76.0915 0.446755C76.3307 0.376922 76.5598 0.307089 76.7989 0.257208C76.8388 0.247232 76.8687 0.247232 76.9085 0.227279C77.4067 0.137494 77.9148 0.0776367 78.4428 0.0776367C78.4528 0.0776367 78.4528 0.0776367 78.4628 0.0776367C78.6222 0.0776367 78.7716 0.0776367 78.931 0.0876129C79.0805 0.0975891 79.2399 0.117541 79.3794 0.127518C79.5388 0.137494 79.6783 0.157446 79.8177 0.187375C80.7543 0.337017 81.5214 0.656255 82.1093 1.11516C82.448 1.37454 82.717 1.67383 82.9561 1.99306C83.0259 2.08285 83.0956 2.19259 83.1554 2.30232C83.3447 2.61159 83.5141 2.95078 83.6336 3.31989C83.7133 3.5693 83.7831 3.82868 83.8428 4.08806C83.8827 4.2377 83.9126 4.39732 83.9425 4.54696C83.9724 4.72654 84.0022 4.89613 84.0222 5.06573C84.062 5.27523 84.082 5.50468 84.0919 5.72415C84.1118 5.88377 84.1218 6.04339 84.1218 6.21299C84.1318 6.34268 84.1318 6.47237 84.1318 6.61203Z" fill="#21383E"/>
<path d="M23.1181 15.062C21.9026 15.062 20.9661 14.9423 20.3284 14.7028C19.6908 14.4634 19.2325 14.0743 18.9934 13.5257C18.7543 12.967 18.6247 12.2288 18.5749 11.291H23.1579C24.3436 11.291 25.3897 11.1314 26.2664 10.8421C27.1532 10.5428 27.8306 10.034 28.3188 9.31571C28.807 8.58745 29.0461 7.62974 29.0461 6.40267C29.0461 4.74662 28.807 3.4597 28.3188 2.56184C27.8306 1.65401 27.0436 1.02551 25.9675 0.666366C25.5989 0.546651 25.1904 0.436913 24.7421 0.357104C23.8554 0.197485 22.8192 0.117676 21.6137 0.117676C20.5277 0.117676 19.5513 0.197485 18.7044 0.357104C17.9871 0.486794 17.3594 0.686318 16.8214 0.925746C15.6458 1.47444 14.8089 2.42217 14.3007 3.77893C13.8126 5.14567 13.5635 7.05112 13.5635 9.52521C13.5635 11.9295 13.8225 13.805 14.3605 15.1618C14.8786 16.5185 15.845 17.576 17.0506 18.1147C17.5388 18.3342 18.0967 18.5038 18.7244 18.6335C19.621 18.823 20.6672 18.9128 21.8627 18.9128C23.3174 18.9128 24.5627 18.813 25.6188 18.6634C25.6786 18.6534 25.7384 18.6434 25.7982 18.6335C26.7845 18.4639 27.6115 18.3142 28.538 18.1446V15.062H23.1181ZM18.824 5.52476C19.0233 4.86634 19.362 4.40743 19.8103 4.14805C20.2587 3.88867 20.8664 3.75898 21.6436 3.75898C22.3709 3.75898 22.9388 3.83879 23.3672 4.01836C23.7956 4.18796 24.1144 4.46729 24.3137 4.86634C24.5229 5.27536 24.6225 5.79412 24.6225 6.45255C24.6225 7.15088 24.4731 7.63971 24.1443 7.91905C23.8354 8.1884 23.3373 8.32807 22.6598 8.32807H18.5151C18.5151 7.101 18.6048 6.17322 18.824 5.52476Z" fill="#21383E"/>
<path d="M64.1057 4.91622C63.7968 3.69912 63.3086 2.74141 62.6411 2.04308C61.9736 1.34475 61.1068 0.855913 60.0507 0.546651C59.7817 0.476818 59.4928 0.406985 59.1939 0.357104C58.3072 0.197485 57.3009 0.117676 56.1751 0.117676C55.0791 0.117676 54.0828 0.197485 53.2061 0.357104C52.9072 0.406985 52.6182 0.476818 52.3492 0.546651C51.2832 0.825984 50.4164 1.31482 49.7489 2.02313C49.0813 2.70151 48.5832 3.65922 48.2843 4.88629C47.9754 6.10338 47.8359 7.64969 47.8359 9.51523C47.8359 11.301 47.9754 12.7774 48.2843 14.0045C48.5832 15.2017 49.0813 16.1793 49.7489 16.8976C50.4164 17.6259 51.2832 18.1546 52.3393 18.4539C52.5784 18.5237 52.8275 18.5836 53.0965 18.6434C53.9931 18.833 55.0193 18.9228 56.1751 18.9228C57.3806 18.9228 58.4466 18.823 59.3633 18.6434C59.6223 18.5936 59.8614 18.5337 60.1005 18.4639C61.1865 18.1746 62.0334 17.6757 62.6909 16.9674C63.3485 16.2591 63.8168 15.3014 64.1256 14.0843C64.4145 12.8473 64.564 11.3409 64.564 9.51523C64.574 7.66964 64.4046 6.13331 64.1057 4.91622ZM59.3433 12.5979C59.2038 13.386 58.9946 13.9646 58.7455 14.3437C58.4765 14.7128 58.1378 14.9722 57.7193 15.0919C57.2909 15.2216 56.7828 15.2815 56.1751 15.2815C55.5773 15.2815 55.0791 15.2216 54.6607 15.0919C54.2323 14.9722 53.9035 14.7228 53.6245 14.3437C53.3555 13.9546 53.1463 13.376 53.0267 12.5979C52.9171 11.8297 52.8573 10.7822 52.8573 9.50526C52.8573 8.20835 52.9171 7.18081 53.0466 6.40267C53.1662 5.6345 53.3655 5.05588 53.6444 4.67679C53.9134 4.28772 54.2522 4.03831 54.6806 3.9186C55.099 3.78891 55.5972 3.73903 56.195 3.73903C56.8027 3.73903 57.3109 3.78891 57.7393 3.9186C58.1577 4.03831 58.4865 4.28772 58.7655 4.67679C59.0145 5.04591 59.2138 5.62453 59.3633 6.40267C59.4928 7.17083 59.5625 8.20835 59.5625 9.50526C59.5526 10.7822 59.4728 11.8297 59.3433 12.5979Z" fill="#21383E"/>
<path d="M45.9931 0.396973H30.9189V4.43732H39.8559L30.9189 15.0021V18.6434H45.9931V14.5831H37.0761L45.9931 3.96844V0.396973Z" fill="#21383E"/>
</svg>
